<?xml version="1.0" standalone="no"?>
<!DOCTYPE svg PUBLIC "-//W3C//DTD SVG 20010904//EN"
 "http://www.w3.org/TR/2001/REC-SVG-20010904/DTD/svg10.dtd">
<svg version="1.0" xmlns="http://www.w3.org/2000/svg"
 width="190.000000pt" height="190.000000pt" viewBox="0 0 190.000000 190.000000"
 preserveAspectRatio="xMidYMid meet">
<metadata>
Created by potrace 1.11, written by Peter Selinger 2001-2013
</metadata>
<g transform="translate(0.000000,190.000000) scale(0.100000,-0.100000)"
fill="#000000" stroke="none">
<path d="M0 950 l0 -950 950 0 950 0 0 950 0 950 -950 0 -950 0 0 -950z m720
850 c0 -11 -6 -20 -14 -20 -21 0 -31 21 -15 31 22 14 29 11 29 -11z m220 -156
c0 -8 -9 -14 -20 -14 -22 0 -28 26 -7 33 16 6 27 -1 27 -19z m-345 -44 c59
-41 78 -42 92 -5 l11 30 1 -39 c1 -30 4 -37 16 -32 10 3 15 -1 15 -13 0 -10 7
-24 15 -31 8 -6 17 -22 21 -33 4 -12 25 -44 48 -72 22 -27 35 -45 27 -41 -8 5
-17 3 -22 -5 -5 -8 -9 -176 -9 -374 0 -198 -4 -366 -9 -373 -12 -20 -21 35
-21 137 0 72 -28 244 -44 269 -2 4 -25 6 -50 4 -40 -4 -44 -6 -31 -19 23 -23
29 -63 17 -110 -8 -26 -12 -128 -12 -261 l0 -218 70 -69 70 -70 85 85 c46 46
81 88 78 93 -3 5 -20 -5 -37 -22 -18 -17 -39 -31 -47 -31 -23 0 -93 76 -79 85
7 4 26 -6 45 -25 l33 -32 42 38 41 37 27 -26 27 -27 -108 -107 -107 -108 -85
85 -85 84 -2 256 -3 255 -82 -79 -83 -79 0 -214 0 -213 -41 -45 c-23 -25 -46
-45 -52 -45 -5 0 -29 20 -53 44 l-44 43 0 497 c0 571 5 545 -86 455 l-54 -53
-25 24 c-14 13 -25 28 -25 33 0 12 208 225 234 239 15 8 29 0 82 -53 l64 -63
2 -221 3 -220 83 79 82 79 0 95 0 96 -42 43 -42 43 39 40 c56 57 54 82 -9 149
-53 55 -50 57 19 11z m385 20 c0 -13 -7 -20 -20 -20 -19 0 -27 20 -13 33 13
14 33 6 33 -13z m-116 -15 c3 -8 15 -15 26 -15 13 0 20 -7 20 -20 0 -13 -7
-20 -20 -20 -12 0 -20 7 -20 16 0 14 -7 15 -40 10 -35 -5 -40 -4 -40 13 0 14
8 21 28 24 15 2 30 5 33 6 4 0 9 -6 13 -14z m-316 -128 c3 -12 -4 -17 -21 -17
-14 0 -32 -3 -41 -6 -11 -4 -16 0 -16 14 0 15 8 22 28 25 38 5 47 3 50 -16z
m1316 -49 c25 -35 19 -58 -22 -98 -51 -50 -114 -71 -347 -115 -128 -24 -210
-44 -226 -55 -30 -21 -43 -16 -28 11 11 22 38 30 266 75 227 44 323 80 323
121 0 7 -9 13 -20 13 -10 0 -24 9 -30 21 -10 18 -18 20 -83 15 -40 -3 -96 -10
-126 -16 -29 -5 -139 -21 -244 -35 -105 -14 -193 -28 -195 -30 -2 -2 -23 -47
-47 -100 -46 -102 -52 -112 -60 -103 -8 7 72 220 86 229 12 7 43 12 304 49 77
11 160 24 185 29 25 5 91 9 147 10 95 1 103 -1 117 -21z m-188 -822 c47 -47
46 -89 -7 -205 -33 -71 -46 -91 -66 -96 -14 -3 -28 -3 -31 0 -3 3 6 30 20 59
l27 54 -39 6 c-52 8 -90 53 -90 108 0 32 7 47 34 74 28 28 42 34 76 34 34 0
48 -6 76 -34z m-345 22 c0 -2 10 -61 23 -133 l22 -130 36 3 c26 2 37 -1 42
-14 10 -26 -1 -32 -104 -48 -74 -12 -96 -13 -102 -3 -16 24 -7 35 33 42 38 7
41 9 36 34 -3 14 -11 64 -18 110 l-13 83 -37 -5 c-32 -4 -38 -2 -43 16 -3 12
-3 23 -1 26 9 9 124 26 126 19z m-198 -65 c49 -78 50 -83 24 -83 -18 0 -32 13
-56 51 -17 28 -29 55 -25 60 11 19 35 8 57 -28z"/>
<path d="M347 1003 c-20 -33 -36 -199 -42 -413 l-6 -245 36 -35 35 -34 30 29
30 29 0 217 c0 179 3 219 15 229 24 20 137 182 131 188 -3 3 -25 -8 -48 -24
-65 -44 -86 -47 -114 -19 -13 13 -24 32 -24 43 0 28 -32 54 -43 35z"/>
<path d="M1560 570 c-26 -26 -25 -46 5 -75 30 -31 40 -31 71 0 18 19 23 31 19
48 -15 47 -61 61 -95 27z"/>
</g>
</svg>
